<svg width="278" height="251" viewBox="0 0 278 251" fill="none" xmlns="http://www.w3.org/2000/svg">
<path d="M275.561 95.9875C275.462 95.9875 275.364 95.9568 275.283 95.8996L140.4 1.4187C139.989 1.13252 139.501 0.979574 139.002 0.98043C138.502 0.981287 138.015 1.1359 137.606 1.42349L3.6942 95.8986C3.58828 95.9733 3.4572 96.0027 3.32977 95.9802C3.20234 95.9577 3.08901 95.8852 3.01472 95.7787C2.94043 95.6721 2.91125 95.5403 2.93361 95.4121C2.95598 95.284 3.02805 95.17 3.13397 95.0952L137.046 0.620126C137.619 0.217559 138.301 0.00116045 139 4.65409e-06C139.7 -0.00115114 140.382 0.21299 140.957 0.613659L275.84 95.0943C275.925 95.154 275.989 95.2395 276.023 95.3384C276.057 95.4372 276.058 95.5443 276.027 95.6439C275.996 95.7436 275.934 95.8306 275.85 95.8924C275.766 95.9542 275.665 95.9875 275.561 95.9875L275.561 95.9875Z" fill="#3F3D56"/>
<path d="M11.3463 99.3367L139.135 4.08105L267.893 106.115L145.719 178.961L79.389 163.754L11.3463 99.3367Z" fill="#E6E6E6"/>
<path d="M84.9878 223.955H21.8573C21.4696 223.955 21.0857 223.879 20.7274 223.73C20.3691 223.581 20.0435 223.363 19.7693 223.087C19.495 222.811 19.2774 222.484 19.1289 222.124C18.9805 221.764 18.9041 221.378 18.9041 220.988C18.9041 220.598 18.9805 220.212 19.1289 219.852C19.2774 219.492 19.495 219.165 19.7693 218.889C20.0435 218.614 20.3691 218.395 20.7274 218.246C21.0857 218.097 21.4696 218.021 21.8573 218.021H84.9878C85.3754 218.021 85.7594 218.097 86.1177 218.246C86.4759 218.395 86.8015 218.614 87.0758 218.889C87.3501 219.165 87.5677 219.492 87.7161 219.852C87.8646 220.212 87.941 220.598 87.941 220.988C87.941 221.378 87.8646 221.764 87.7161 222.124C87.5677 222.484 87.3501 222.811 87.0758 223.087C86.8015 223.363 86.4759 223.581 86.1177 223.73C85.7594 223.879 85.3754 223.955 84.9878 223.955V223.955Z" fill="#7722FF"/>
<path d="M44.5071 211.2H21.8573C21.4696 211.201 21.0857 211.124 20.7274 210.975C20.3691 210.827 20.0435 210.608 19.7693 210.333C19.495 210.057 19.2774 209.73 19.1289 209.37C18.9805 209.01 18.9041 208.623 18.9041 208.234C18.9041 207.844 18.9805 207.458 19.1289 207.097C19.2774 206.737 19.495 206.41 19.7693 206.135C20.0435 205.859 20.3691 205.641 20.7274 205.492C21.0857 205.343 21.4696 205.267 21.8573 205.267H44.5071C44.8947 205.267 45.2787 205.343 45.637 205.492C45.9952 205.641 46.3208 205.859 46.5951 206.135C46.8694 206.41 47.087 206.737 47.2354 207.097C47.3839 207.458 47.4603 207.844 47.4603 208.234C47.4603 208.623 47.3839 209.01 47.2354 209.37C47.087 209.73 46.8694 210.057 46.5951 210.333C46.3208 210.608 45.9952 210.827 45.637 210.975C45.2787 211.124 44.8947 211.201 44.5071 211.2Z" fill="#7722FF"/>
<path d="M140.931 152.393C140.452 152.393 139.976 152.3 139.532 152.117L60.7212 119.227V16.2737C60.7222 15.3633 61.0823 14.4905 61.7223 13.8468C62.3623 13.203 63.2301 12.8409 64.1352 12.8398H215.328C216.233 12.8409 217.101 13.203 217.741 13.8468C218.381 14.4905 218.741 15.3633 218.742 16.2737V119.298L218.594 119.362L142.373 152.101C141.917 152.294 141.427 152.393 140.931 152.393Z" fill="white"/>
<path d="M140.931 152.638C140.42 152.639 139.913 152.539 139.439 152.344L60.4773 119.391V16.2738C60.4784 15.2984 60.8641 14.3633 61.5499 13.6735C62.2356 12.9838 63.1654 12.5958 64.1352 12.5947H215.328C216.298 12.5958 217.228 12.9838 217.913 13.6735C218.599 14.3633 218.985 15.2984 218.986 16.2738V119.46L142.469 152.327C141.982 152.533 141.459 152.638 140.931 152.638V152.638ZM61.4527 118.735L139.811 151.437C140.542 151.735 141.361 151.731 142.088 151.424L218.011 118.813V16.2738C218.01 15.5585 217.727 14.8728 217.224 14.367C216.721 13.8612 216.039 13.5767 215.328 13.5758H64.1352C63.424 13.5767 62.7422 13.8612 62.2394 14.367C61.7365 14.8728 61.4536 15.5585 61.4527 16.2738L61.4527 118.735Z" fill="#3F3D56"/>
<path d="M274.586 95.0063H274.488L218.498 119.053L141.892 151.954C141.593 152.08 141.272 152.147 140.947 152.148C140.622 152.15 140.3 152.087 140 151.964L60.9649 118.984L3.59931 95.0456L3.51167 95.0063H3.41404C2.50888 95.0074 1.64109 95.3695 1.00105 96.0132C0.361016 96.657 0.00100434 97.5298 0 98.4402V247.566C0.00100562 248.477 0.361016 249.349 1.00105 249.993C1.64109 250.637 2.50889 250.999 3.41404 251H274.586C275.491 250.999 276.359 250.637 276.999 249.993C277.639 249.349 277.999 248.477 278 247.566V98.4402C277.999 97.5298 277.639 96.657 276.999 96.0132C276.359 95.3695 275.491 95.0074 274.586 95.0063V95.0063ZM277.025 247.566C277.024 248.217 276.767 248.84 276.31 249.3C275.853 249.76 275.233 250.019 274.586 250.019H3.41404C2.76736 250.019 2.14724 249.76 1.68998 249.3C1.23271 248.84 0.975697 248.217 0.975439 247.566V98.4402C0.976323 97.8059 1.22094 97.1965 1.65814 96.7394C2.09534 96.2823 2.69128 96.0129 3.3214 95.9874L60.9649 120.044L139.624 152.871C140.476 153.22 141.43 153.214 142.278 152.856L218.498 120.117L274.684 95.9874C275.313 96.0148 275.907 96.2849 276.343 96.7418C276.779 97.1986 277.023 97.8069 277.025 98.4402V247.566Z" fill="#3F3D56"/>
<path d="M140.144 123.199C137.234 123.205 134.402 122.258 132.074 120.503L131.93 120.394L101.539 96.9914C100.132 95.9067 98.9507 94.5539 98.063 93.0101C97.1754 91.4663 96.5988 89.7618 96.3661 87.9939C96.1335 86.2259 96.2493 84.4292 96.707 82.7063C97.1647 80.9834 97.9553 79.3681 99.0337 77.9525C100.112 76.5369 101.457 75.3488 102.992 74.456C104.527 73.5633 106.222 72.9833 107.979 72.7493C109.737 72.5153 111.523 72.6317 113.236 73.0921C114.949 73.5524 116.555 74.3476 117.963 75.4323L137.647 90.6135L184.165 29.5962C185.244 28.1809 186.589 26.9933 188.125 26.1011C189.66 25.2088 191.355 24.6295 193.112 24.3961C194.87 24.1627 196.657 24.2798 198.369 24.7408C200.082 25.2018 201.688 25.9977 203.095 27.0828L202.806 27.4778L203.103 27.0886C205.941 29.2826 207.798 32.5194 208.266 36.0888C208.735 39.6582 207.776 43.2688 205.601 46.1284L150.885 117.899C149.62 119.553 147.993 120.892 146.13 121.811C144.267 122.73 142.219 123.205 140.144 123.199V123.199Z" fill="#7722FF"/>
</svg>
