<svg width="325" height="232" viewBox="0 0 325 232" fill="none" xmlns="http://www.w3.org/2000/svg">
<g clip-path="url(#clip0_783_4495)">
<path d="M296.761 208.704C299.611 213.749 297.194 230.786 297.194 230.786C297.194 230.786 281.366 224.078 278.516 219.036C277.151 216.614 276.802 213.748 277.545 211.069C278.289 208.389 280.066 206.115 282.483 204.745C284.901 203.376 287.763 203.024 290.441 203.766C293.118 204.509 295.391 206.285 296.761 208.704V208.704Z" fill="#F1F1F1"/>
<path d="M297.424 230.764L297.087 230.835C293.849 215.43 282.539 204.984 282.425 204.88L282.656 204.625C282.771 204.73 294.161 215.248 297.424 230.764Z" fill="white"/>
<path d="M322.66 214.448C318.792 221.473 296.985 230.989 296.985 230.989C296.985 230.989 293.39 207.446 297.256 200.424C299.113 197.051 302.233 194.555 305.928 193.485C309.624 192.415 313.593 192.859 316.962 194.719C320.331 196.578 322.823 199.702 323.892 203.402C324.961 207.102 324.518 211.075 322.66 214.448Z" fill="#F1F1F1"/>
<path d="M297.177 231.244L296.85 230.899C312.63 215.895 316.715 194.969 316.754 194.759L317.222 194.847C317.182 195.058 313.072 216.131 297.177 231.244Z" fill="white"/>
<path d="M76.4081 161.255C73.9125 161.247 71.4277 160.925 69.0121 160.298L68.536 160.166L68.0944 159.944C52.1267 151.929 38.6556 141.342 28.0553 128.477C19.2804 117.765 12.4392 105.602 7.8391 92.5365C2.33815 76.8935 -0.308353 60.3876 0.0259435 43.8068C0.032689 43.4587 0.0383978 43.19 0.0383978 43.0048C0.0383978 34.9448 4.50706 27.8727 11.4228 24.9877C16.7158 22.7797 64.7735 3.0171 68.2458 1.5892C74.7851 -1.69126 81.7614 1.0468 82.8777 1.52562C85.3819 2.55065 129.808 20.7431 139.409 25.32C149.303 30.0371 151.943 38.5113 151.943 42.7748C151.943 62.0769 148.604 80.1163 142.019 96.3919C136.7 109.566 129.163 121.728 119.734 132.348C101.543 152.844 83.3461 160.11 83.1705 160.175C80.9958 160.924 78.7077 161.289 76.4081 161.255ZM72.1289 150.643C73.7065 150.997 77.3386 151.528 79.706 150.664C82.7133 149.566 97.9434 141.659 112.176 125.624C131.839 103.469 141.817 75.6185 141.831 42.846C141.796 42.182 141.325 37.4465 135.062 34.4603C125.647 29.972 79.4696 11.0677 79.0043 10.8772L78.8767 10.823C77.909 10.417 74.8292 9.56186 72.7063 10.6757L72.2812 10.8741C71.7665 11.0857 20.7526 32.0629 15.312 34.3325C11.5061 35.9202 10.1501 39.8534 10.1501 43.0049C10.1501 43.2352 10.1441 43.5702 10.1357 44.0032C9.70087 66.4274 14.8838 121.606 72.1289 150.643Z" fill="#3F3D56"/>
<path d="M70.3607 6.19174C70.3607 6.19174 18.8832 27.3593 13.3677 29.6601C7.85225 31.9609 5.09453 37.4829 5.09453 43.0049C5.09453 48.5268 0.957955 120.581 70.3607 155.419C70.3607 155.419 76.6597 157.164 81.4386 155.419C86.2176 153.674 146.888 124.224 146.888 42.7748C146.888 42.7748 146.888 34.4918 137.236 29.8902C127.583 25.2885 80.9175 6.19174 80.9175 6.19174C80.9175 6.19174 75.1867 3.66084 70.3607 6.19174Z" fill="#7722FF"/>
<path opacity="0.1" d="M75.8761 22.7578V135.679C75.8761 135.679 23.9389 110.649 24.3985 44.8457L75.8761 22.7578Z" fill="black"/>
<path d="M76.5534 103.916L60.0088 82.6176L69.6302 75.1257L77.464 85.2097L103.928 57.2402L112.778 65.6347L76.5534 103.916Z" fill="white"/>
<path d="M324.603 232H173.426C173.321 232 173.22 231.958 173.145 231.884C173.071 231.809 173.029 231.708 173.029 231.603C173.029 231.497 173.071 231.396 173.145 231.322C173.22 231.247 173.321 231.206 173.426 231.206H324.603C324.709 231.206 324.809 231.247 324.884 231.322C324.958 231.396 325 231.497 325 231.603C325 231.708 324.958 231.809 324.884 231.884C324.809 231.958 324.709 232 324.603 232Z" fill="#CACACA"/>
<path d="M217.127 225.738L223.263 225.738L226.183 202.04L217.125 202.04L217.127 225.738Z" fill="#FFB8B8"/>
<path d="M215.561 223.732L227.646 223.731H227.647C229.689 223.732 231.648 224.544 233.093 225.99C234.537 227.436 235.348 229.397 235.349 231.442V231.693L215.561 231.693L215.561 223.732Z" fill="#2F2E41"/>
<path d="M237.76 225.738L243.896 225.738L246.816 202.04L237.759 202.04L237.76 225.738Z" fill="#FFB8B8"/>
<path d="M236.194 223.732L248.279 223.731H248.28C250.322 223.732 252.281 224.544 253.726 225.99C255.17 227.436 255.981 229.397 255.982 231.442V231.693L236.194 231.693L236.194 223.732Z" fill="#2F2E41"/>
<path d="M226.772 142.517L228.244 217.699L216.336 216.959L208.075 169.073L205.465 136.422L226.772 142.517Z" fill="#2F2E41"/>
<path d="M247.208 129.893L248.877 218.89L234.989 218.493L231.99 165.59L226.772 146.435L205.466 136.423L208.944 112.479L240.251 112.044L247.208 129.893Z" fill="#2F2E41"/>
<path d="M223.265 50.2264C229.146 50.2264 233.914 45.4529 233.914 39.5646C233.914 33.6763 229.146 28.9028 223.265 28.9028C217.384 28.9028 212.616 33.6763 212.616 39.5646C212.616 45.4529 217.384 50.2264 223.265 50.2264Z" fill="#FFB8B8"/>
<path d="M232.097 54.7178L233.729 57.1919L238.077 69.381L234.598 116.832L214.162 117.268L211.553 62.8509L217.018 56.0116L232.097 54.7178Z" fill="#CCCCCC"/>
<path d="M203.291 64.157L199.813 63.7217C199.813 63.7217 198.943 64.157 198.508 67.2043C198.074 70.2517 192.856 97.2424 192.856 97.2424L199.813 130.328L207.64 119.88L202.857 101.596L207.64 83.3117L203.291 64.157Z" fill="#2F2E41"/>
<path d="M247.643 63.7222H250.252L256.774 98.9838L250.687 126.41L244.599 116.397L246.338 105.514L245.469 95.9368L242.425 90.277L247.643 63.7222Z" fill="#2F2E41"/>
<path d="M229.558 39.5646L227.621 39.08C227.621 39.08 226.169 30.8413 222.781 31.8106C219.392 32.7798 210.679 33.7491 210.679 29.8721C210.679 25.9951 218.908 22.6027 223.749 23.0873C228.589 23.5719 234.772 25.1797 236.334 32.2952C238.839 43.7017 231.166 46.5829 231.166 46.5829L231.293 46.1675C231.648 45.0144 231.673 43.785 231.366 42.6181C231.06 41.4513 230.433 40.3936 229.558 39.5646V39.5646Z" fill="#2F2E41"/>
<path d="M200.248 63.722L214.162 58.0627L217.423 55.6683L227.207 98.984L231.772 54.3623L249.817 63.722L243.73 93.3247L242.86 104.643L245.469 113.785C245.469 113.785 254.6 120.315 251.557 127.281C248.513 134.246 245.034 134.681 245.034 134.681C245.034 134.681 230.25 120.751 229.381 117.268C228.511 113.785 227.207 107.691 227.207 107.691C227.207 107.691 219.815 135.552 211.118 135.117C202.422 134.681 202.422 125.539 202.422 125.539L204.596 115.962L208.075 105.949L206.335 89.4066L200.248 63.722Z" fill="#2F2E41"/>
</g>
<defs>
<clipPath id="clip0_783_4495">
<rect width="325" height="232" fill="white"/>
</clipPath>
</defs>
</svg>
