<svg width="330" height="330" viewBox="0 0 330 330" fill="none" xmlns="http://www.w3.org/2000/svg">
<rect width="330" height="330" fill="#E5D5FF" fill-opacity="0.08"/>
<path d="M214.375 156.5C198.029 156.5 184.75 169.821 184.75 186.25C184.75 202.679 198.029 216 214.375 216C230.721 216 244 202.679 244 186.25C244 169.821 230.721 156.5 214.375 156.5ZM230.833 189.556H197.917V182.944H230.833V189.556ZM112.333 189.556L138.667 150.153L154.993 163.111L171.583 136.667L183.782 156.262C175.415 164.876 170.767 176.684 171.755 189.556H112.333ZM183.565 216H86V97H230.833V146.59C226.732 144.864 222.295 143.8 217.667 143.443V110.222H99.1667V202.778H174.888C176.942 207.73 179.924 212.192 183.565 216ZM122.208 143.278C116.757 143.278 112.333 138.842 112.333 133.361C112.333 127.887 116.757 123.444 122.208 123.444C127.659 123.444 132.083 127.887 132.083 133.361C132.083 138.842 127.659 143.278 122.208 143.278Z" fill="#E5D5FF"/>
</svg>
