<svg width="330" height="330" viewBox="0 0 330 330" fill="none" xmlns="http://www.w3.org/2000/svg">
<rect width="330" height="330" fill="#E5D5FF" fill-opacity="0.08"/>
<path d="M165 100C129.12 100 100 129.12 100 165C100 200.88 129.12 230 165 230C200.88 230 230 200.88 230 165C230 129.12 200.88 100 165 100ZM165 119.5C175.79 119.5 184.5 128.21 184.5 139C184.5 149.79 175.79 158.5 165 158.5C154.21 158.5 145.5 149.79 145.5 139C145.5 128.21 154.21 119.5 165 119.5ZM165 211.8C148.75 211.8 134.385 203.48 126 190.87C126.195 177.935 152 170.85 165 170.85C177.935 170.85 203.805 177.935 204 190.87C195.615 203.48 181.25 211.8 165 211.8Z" fill="#E5D4FF"/>
</svg>
